<svg width="33" height="33" viewBox="0 0 33 33" fill="none" xmlns="http://www.w3.org/2000/svg">
<g clip-path="url(#clip0_2365_14966)">
<path d="M24.3606 14.3131C25.0919 12.2756 27.1981 6.38184 27.1981 4.49434C27.1981 2.83184 26.2169 1.43809 24.4669 1.43809C21.6794 1.43809 19.1794 9.66934 18.3981 11.6318C17.7919 9.85058 14.9544 0.850586 12.4544 0.850586C10.5106 0.850586 9.59814 2.28184 9.59814 4.08184C9.59814 6.28809 11.7356 12.0068 12.5106 14.2068C12.1169 14.0631 11.6919 13.9381 11.2606 13.9381C9.79814 13.9381 8.24189 15.7568 8.24189 17.2256C8.24189 17.7818 8.54814 18.5631 8.74189 19.0818C6.43564 19.7068 5.54814 21.2443 5.54814 23.5631C5.54189 28.0756 9.8169 32.8506 15.8294 32.8506C23.2044 32.8506 27.7919 27.3131 27.7919 20.1693C27.7919 17.4756 27.3606 15.0443 24.3606 14.3131ZM22.1481 7.60059C22.3981 6.83184 23.4669 3.58184 24.4669 3.58184C25.0044 3.58184 25.1481 4.13809 25.1481 4.58184C25.1481 5.77559 22.7356 12.3693 22.2044 13.8318L20.0794 13.4568L22.1481 7.60059ZM11.5606 3.86934C11.5606 3.12559 12.4669 1.01309 14.4544 6.81309L16.6169 13.0818C15.6419 13.0006 14.8856 12.8943 14.4044 13.1693C13.7231 11.3693 11.5606 5.68809 11.5606 3.86934ZM11.4169 16.1006C13.2481 16.1006 15.6106 22.0131 15.6106 22.8131C15.6106 23.1318 15.3044 23.5256 14.9481 23.5256C13.6419 23.5256 10.1419 18.7193 10.1419 17.4193C10.1481 16.9381 10.9356 16.1006 11.4169 16.1006ZM22.9356 27.7443C21.1169 29.7443 18.7919 30.7818 16.0794 30.7818C12.3669 30.7818 9.43564 28.7443 8.02314 25.2631C6.95439 22.5506 8.26064 20.9943 9.31064 20.9943C10.0231 20.9943 12.7044 24.7631 12.7044 25.5631C12.7044 25.8693 12.2231 26.0818 11.9731 26.0818C10.9669 26.0818 10.5731 25.1131 8.77939 22.8693C6.92314 24.7256 10.0606 28.3006 12.4231 28.3006C14.0544 28.3006 15.1169 26.7881 14.7981 25.6756C15.0294 25.6756 15.3169 25.6943 15.5294 25.6381C15.5981 27.3318 16.0981 29.3506 18.1356 29.4943C18.1356 29.4381 18.2606 29.0506 18.2606 29.0318C18.2606 27.9443 17.5981 26.9943 17.5981 25.8881C17.5981 24.1193 18.9544 22.4068 20.3294 21.4068C20.8294 21.0318 21.4356 20.8006 22.0231 20.5881C22.6294 20.3568 23.2731 20.0881 23.7356 19.6256C23.6669 18.9256 23.3794 18.3068 22.6794 18.3068C20.9481 18.3068 15.1419 18.5568 15.1419 15.8256C15.1419 15.4068 15.1481 15.0068 16.2294 15.0068C18.2481 15.0068 23.3731 15.5068 24.8731 16.8256C26.0044 17.8318 26.3919 23.9006 22.9356 27.7443ZM16.7731 19.8693C17.3794 20.0631 18.0044 20.1193 18.6294 20.2443C18.1669 20.5818 17.7544 20.9943 17.3606 21.4381C17.1856 20.9068 16.9731 20.3881 16.7731 19.8693Z" fill="#98A2B3"/>
</g>
<defs>
<clipPath id="clip0_2365_14966">
<rect width="32" height="32" fill="white" transform="translate(0.666489 0.850586)"/>
</clipPath>
</defs>
</svg>
