<svg width="33" height="33" viewBox="0 0 33 33" fill="none" xmlns="http://www.w3.org/2000/svg">
<g clip-path="url(#clip0_2365_14964)">
<path fill-rule="evenodd" clip-rule="evenodd" d="M16.6665 0.850586C7.82973 0.850586 0.666534 8.02499 0.666534 16.8778C0.666534 23.9578 5.25053 29.9658 11.6089 32.0842C12.4089 32.2314 12.7001 31.737 12.7001 31.3114C12.7001 30.9322 12.6873 29.9226 12.6793 28.5866C8.22813 29.5546 7.28893 26.4378 7.28893 26.4378C6.56253 24.585 5.51293 24.0922 5.51293 24.0922C4.06013 23.1002 5.62333 23.1194 5.62333 23.1194C7.22813 23.2314 8.07293 24.7706 8.07293 24.7706C9.50013 27.2186 11.8185 26.5114 12.7289 26.1018C12.8761 25.0666 13.2889 24.361 13.7465 23.961C10.1945 23.5562 6.45853 22.1802 6.45853 16.0394C6.45853 14.2906 7.08253 12.8586 8.10493 11.7386C7.94013 11.3338 7.39133 9.70339 8.26173 7.49859C8.26173 7.49859 9.60573 7.06659 12.6617 9.14019C13.967 8.78421 15.3136 8.60289 16.6665 8.60099C18.0265 8.60739 19.3945 8.78499 20.6729 9.14019C23.7273 7.06659 25.0681 7.49699 25.0681 7.49699C25.9417 9.70339 25.3913 11.3338 25.2281 11.7386C26.2521 12.8586 26.8729 14.2906 26.8729 16.0394C26.8729 22.1962 23.1305 23.5514 19.5673 23.9482C20.1417 24.4426 20.6521 25.4202 20.6521 26.9162C20.6521 29.057 20.6329 30.7866 20.6329 31.3114C20.6329 31.7402 20.9209 32.2394 21.7337 32.0826C24.9198 31.014 27.6895 28.9711 29.6513 26.2427C31.6131 23.5142 32.6679 20.2383 32.6665 16.8778C32.6665 8.02499 25.5017 0.850586 16.6665 0.850586Z" fill="#98A2B3"/>
</g>
<defs>
<clipPath id="clip0_2365_14964">
<rect width="32" height="32" fill="white" transform="translate(0.666519 0.850586)"/>
</clipPath>
</defs>
</svg>
