<svg width="19" height="19" viewBox="0 0 19 19" fill="none" xmlns="http://www.w3.org/2000/svg">
<path d="M9.82368 0.68915L12.5214 6.17331L18.5518 7.05294C18.6283 7.06432 18.7002 7.09684 18.7592 7.14684C18.8183 7.19684 18.8622 7.26234 18.886 7.33595C18.9099 7.40956 18.9127 7.48837 18.8942 7.5635C18.8756 7.63862 18.8365 7.70708 18.7812 7.76117L14.4183 12.029L15.4484 18.0566C15.4617 18.1328 15.4534 18.2112 15.4243 18.2829C15.3953 18.3546 15.3468 18.4167 15.2843 18.4622C15.2218 18.5078 15.1478 18.5349 15.0706 18.5405C14.9935 18.5461 14.9163 18.53 14.8479 18.494L9.45374 15.6487L4.05961 18.4948C3.99121 18.5309 3.91405 18.5472 3.83688 18.5416C3.75972 18.5361 3.68565 18.5091 3.62309 18.4636C3.56054 18.418 3.51201 18.3559 3.48301 18.2842C3.45401 18.2125 3.44572 18.134 3.45907 18.0578L4.48915 12.029L0.125087 7.76117C0.0697532 7.70708 0.0306183 7.63862 0.01209 7.5635C-0.00643837 7.48837 -0.00362419 7.40956 0.0202156 7.33595C0.0440554 7.26234 0.0879739 7.19684 0.147025 7.14684C0.206076 7.09684 0.277915 7.06432 0.35445 7.05294L6.38488 6.17331L9.0838 0.68915C9.11746 0.619654 9.17001 0.561044 9.23544 0.520035C9.30087 0.479026 9.37652 0.457275 9.45374 0.457275C9.53096 0.457275 9.60662 0.479026 9.67204 0.520035C9.73747 0.561044 9.79002 0.619654 9.82368 0.68915Z" fill="#ED2326"/>
</svg>
