<svg width="20" height="19" viewBox="0 0 20 19" fill="none" xmlns="http://www.w3.org/2000/svg">
<path d="M10.394 0.68915L13.0917 6.17331L19.1221 7.05294C19.1986 7.06432 19.2705 7.09684 19.3295 7.14684C19.3886 7.19684 19.4325 7.26234 19.4563 7.33595C19.4802 7.40956 19.483 7.48837 19.4645 7.5635C19.4459 7.63862 19.4068 7.70708 19.3515 7.76117L14.9886 12.029L16.0187 18.0566C16.032 18.1328 16.0237 18.2112 15.9947 18.2829C15.9657 18.3546 15.9171 18.4167 15.8546 18.4622C15.7921 18.5078 15.7181 18.5349 15.6409 18.5405C15.5638 18.5461 15.4866 18.53 15.4182 18.494L10.0241 15.6487L4.62992 18.4948C4.56152 18.5309 4.48436 18.5472 4.40719 18.5416C4.33003 18.5361 4.25596 18.5091 4.19341 18.4636C4.13085 18.418 4.08232 18.3559 4.05332 18.2842C4.02433 18.2125 4.01603 18.134 4.02938 18.0578L5.05946 12.029L0.6954 7.76117C0.640066 7.70708 0.600931 7.63862 0.582402 7.5635C0.563874 7.48837 0.566688 7.40956 0.590528 7.33595C0.614368 7.26234 0.658286 7.19684 0.717338 7.14684C0.776389 7.09684 0.848227 7.06432 0.924763 7.05294L6.9552 6.17331L9.65411 0.68915C9.68777 0.619654 9.74033 0.561044 9.80575 0.520035C9.87118 0.479026 9.94684 0.457275 10.0241 0.457275C10.1013 0.457275 10.1769 0.479026 10.2424 0.520035C10.3078 0.561044 10.3603 0.619654 10.394 0.68915Z" fill="#ED2326"/>
</svg>
