<svg width="19" height="19" viewBox="0 0 19 19" fill="none" xmlns="http://www.w3.org/2000/svg">
<path d="M9.91743 0.68915L12.6151 6.17331L18.6455 7.05294C18.7221 7.06432 18.7939 7.09684 18.853 7.14684C18.912 7.19684 18.9559 7.26234 18.9798 7.33595C19.0036 7.40956 19.0064 7.48837 18.9879 7.5635C18.9694 7.63862 18.9302 7.70708 18.8749 7.76117L14.5121 12.029L15.5422 18.0566C15.5554 18.1328 15.5471 18.2112 15.5181 18.2829C15.4891 18.3546 15.4406 18.4167 15.3781 18.4622C15.3155 18.5078 15.2415 18.5349 15.1644 18.5405C15.0872 18.5461 15.0101 18.53 14.9416 18.494L9.54749 15.6487L4.15336 18.4948C4.08496 18.5309 4.0078 18.5472 3.93063 18.5416C3.85347 18.5361 3.7794 18.5091 3.71684 18.4636C3.65429 18.418 3.60576 18.3559 3.57676 18.2842C3.54776 18.2125 3.53947 18.134 3.55282 18.0578L4.5829 12.029L0.218837 7.76117C0.163503 7.70708 0.124368 7.63862 0.10584 7.5635C0.0873116 7.48837 0.0901258 7.40956 0.113966 7.33595C0.137805 7.26234 0.181724 7.19684 0.240775 7.14684C0.299826 7.09684 0.371665 7.06432 0.4482 7.05294L6.47863 6.17331L9.17755 0.68915C9.21121 0.619654 9.26376 0.561044 9.32919 0.520035C9.39462 0.479026 9.47027 0.457275 9.54749 0.457275C9.62471 0.457275 9.70037 0.479026 9.76579 0.520035C9.83122 0.561044 9.88377 0.619654 9.91743 0.68915Z" fill="#ED2326"/>
</svg>
