<svg width="19" height="19" viewBox="0 0 19 19" fill="none" xmlns="http://www.w3.org/2000/svg">
<path d="M9.87056 0.68915L12.5682 6.17331L18.5987 7.05294C18.6752 7.06432 18.747 7.09684 18.8061 7.14684C18.8652 7.19684 18.9091 7.26234 18.9329 7.33595C18.9568 7.40956 18.9596 7.48837 18.941 7.5635C18.9225 7.63862 18.8834 7.70708 18.828 7.76117L14.4652 12.029L15.4953 18.0566C15.5086 18.1328 15.5002 18.2112 15.4712 18.2829C15.4422 18.3546 15.3937 18.4167 15.3312 18.4622C15.2687 18.5078 15.1946 18.5349 15.1175 18.5405C15.0404 18.5461 14.9632 18.53 14.8948 18.494L9.50062 15.6487L4.10648 18.4948C4.03808 18.5309 3.96092 18.5472 3.88376 18.5416C3.80659 18.5361 3.73252 18.5091 3.66997 18.4636C3.60741 18.418 3.55888 18.3559 3.52989 18.2842C3.50089 18.2125 3.4926 18.134 3.50594 18.0578L4.53602 12.029L0.171962 7.76117C0.116628 7.70708 0.0774933 7.63862 0.058965 7.5635C0.0404366 7.48837 0.0432508 7.40956 0.0670906 7.33595C0.0909304 7.26234 0.134849 7.19684 0.1939 7.14684C0.252951 7.09684 0.32479 7.06432 0.401325 7.05294L6.43176 6.17331L9.13068 0.68915C9.16434 0.619654 9.21689 0.561044 9.28232 0.520035C9.34774 0.479026 9.4234 0.457275 9.50062 0.457275C9.57783 0.457275 9.65349 0.479026 9.71892 0.520035C9.78434 0.561044 9.8369 0.619654 9.87056 0.68915Z" fill="#ED2326"/>
</svg>
