<svg width="33" height="33" viewBox="0 0 33 33" fill="none" xmlns="http://www.w3.org/2000/svg">
<path fill-rule="evenodd" clip-rule="evenodd" d="M16.6666 0.850586C7.83365 0.850586 0.666618 8.01762 0.666618 16.8506C0.666618 25.6836 7.83365 32.8506 16.6666 32.8506C25.4822 32.8506 32.6666 25.6836 32.6666 16.8506C32.6666 8.01762 25.4822 0.850586 16.6666 0.850586ZM27.2349 8.22586C29.1438 10.5512 30.2892 13.5187 30.3239 16.7291C29.8727 16.6424 25.3607 15.7226 20.8141 16.2953C20.71 16.0697 20.6232 15.8267 20.5191 15.5838C20.2414 14.9244 19.9291 14.2476 19.6167 13.6055C24.6492 11.5578 26.9399 8.60764 27.2349 8.22586ZM16.6666 3.21068C20.1373 3.21068 23.313 4.5122 25.7252 6.64669C25.4822 6.99376 23.4171 9.75298 18.5581 11.5751C16.3195 7.4623 13.838 4.09571 13.4562 3.5751C14.48 3.33215 15.556 3.21068 16.6666 3.21068ZM10.8532 4.49484C11.2176 4.98074 13.6471 8.36469 15.9204 12.3907C9.5343 14.0914 3.89439 14.0567 3.28701 14.0567C4.17204 9.82239 7.03538 6.29961 10.8532 4.49484ZM2.992 16.868C2.992 16.7291 2.992 16.5903 2.992 16.4515C3.58202 16.4688 10.2111 16.5556 17.031 14.5079C17.4302 15.2714 17.7946 16.0523 18.1417 16.8332C17.9681 16.8853 17.7772 16.9374 17.6037 16.9894C10.5582 19.2627 6.80979 25.4753 6.49742 25.9959C4.32822 23.5838 2.992 20.3734 2.992 16.868ZM16.6666 30.5252C13.5082 30.5252 10.5929 29.4493 8.28484 27.6445C8.52779 27.1413 11.3043 21.7964 19.0093 19.1066C19.044 19.0892 19.0614 19.0892 19.0961 19.0719C21.0223 24.0523 21.8033 28.2345 22.0115 29.4319C20.3629 30.1434 18.5581 30.5252 16.6666 30.5252ZM24.2848 28.1825C24.146 27.3495 23.4171 23.3582 21.6297 18.4471C25.9161 17.7703 29.6644 18.881 30.133 19.0372C29.543 22.8376 27.3564 26.1174 24.2848 28.1825Z" fill="#98A2B3"/>
</svg>
