<svg width="33" height="33" viewBox="0 0 33 33" fill="none" xmlns="http://www.w3.org/2000/svg">
<g clip-path="url(#clip0_2365_14962)">
<path d="M32.6664 16.8506C32.6664 8.01402 25.503 0.850586 16.6664 0.850586C7.82983 0.850586 0.666397 8.01402 0.666397 16.8506C0.666397 24.8365 6.51733 31.4559 14.1664 32.6562V21.4756H10.1039V16.8506H14.1664V13.3256C14.1664 9.31559 16.5551 7.10059 20.2098 7.10059C21.9598 7.10059 23.7914 7.41309 23.7914 7.41309V11.3506H21.7739C19.7864 11.3506 19.1664 12.584 19.1664 13.8506V16.8506H23.6039L22.8945 21.4756H19.1664V32.6562C26.8155 31.4559 32.6664 24.8365 32.6664 16.8506Z" fill="#98A2B3"/>
</g>
<defs>
<clipPath id="clip0_2365_14962">
<rect width="32" height="32" fill="white" transform="translate(0.666443 0.850586)"/>
</clipPath>
</defs>
</svg>
