<svg width="33" height="33" viewBox="0 0 33 33" fill="none" xmlns="http://www.w3.org/2000/svg">
<g clip-path="url(#clip0_2365_14957)">
<path d="M10.7332 29.8486C22.8057 29.8486 29.4107 19.8442 29.4107 11.1711C29.4107 10.8899 29.4044 10.6024 29.3919 10.3211C30.6768 9.39191 31.7856 8.24097 32.6663 6.92236C31.4697 7.45477 30.1992 7.80248 28.8982 7.95361C30.268 7.13251 31.2937 5.8426 31.7851 4.32299C30.4964 5.08671 29.0871 5.62545 27.6176 5.91611C26.6274 4.86405 25.3183 4.16745 23.8926 3.93403C22.4668 3.70061 21.0039 3.94337 19.73 4.62476C18.456 5.30616 17.4421 6.38824 16.8448 7.70371C16.2475 9.01919 16.1002 10.4948 16.4257 11.9024C13.8163 11.7714 11.2636 11.0936 8.93296 9.91276C6.60236 8.73196 4.54591 7.07455 2.89695 5.04799C2.05885 6.49296 1.8024 8.20283 2.1797 9.83009C2.55699 11.4573 3.53974 12.8799 4.9282 13.8086C3.88582 13.7755 2.86629 13.4949 1.95382 12.9899V13.0711C1.95289 14.5875 2.47712 16.0574 3.4374 17.231C4.39768 18.4046 5.73475 19.2094 7.22132 19.5086C6.25573 19.7728 5.2423 19.8113 4.25945 19.6211C4.67893 20.9252 5.49508 22.0658 6.59401 22.8837C7.69295 23.7017 9.01981 24.1561 10.3894 24.1836C8.06422 26.0101 5.19189 27.0008 2.23507 26.9961C1.7107 26.9953 1.18685 26.9632 0.666321 26.8999C3.67013 28.827 7.16436 29.8505 10.7332 29.8486Z" fill="#98A2B3"/>
</g>
<defs>
<clipPath id="clip0_2365_14957">
<rect width="32" height="32" fill="white" transform="translate(0.666504 0.850586)"/>
</clipPath>
</defs>
</svg>
