<svg width="33" height="33" viewBox="0 0 33 33" fill="none" xmlns="http://www.w3.org/2000/svg">
<g clip-path="url(#clip0_2365_14959)">
<path d="M30.2985 0.843018H3.02974C1.72349 0.843018 0.667236 1.87427 0.667236 3.14927V30.5305C0.667236 31.8055 1.72349 32.843 3.02974 32.843H30.2985C31.6047 32.843 32.6672 31.8055 32.6672 30.5368V3.14927C32.6672 1.87427 31.6047 0.843018 30.2985 0.843018ZM10.161 28.1118H5.41099V12.8368H10.161V28.1118ZM7.78599 10.7555C6.26099 10.7555 5.02974 9.52427 5.02974 8.00552C5.02974 6.48677 6.26099 5.25552 7.78599 5.25552C9.30474 5.25552 10.536 6.48677 10.536 8.00552C10.536 9.51802 9.30474 10.7555 7.78599 10.7555ZM27.936 28.1118H23.1922V20.6868C23.1922 18.918 23.161 16.6368 20.7235 16.6368C18.2547 16.6368 17.8797 18.568 17.8797 20.5618V28.1118H13.1422V12.8368H17.6922V14.9243H17.7547C18.386 13.7243 19.936 12.4555 22.2422 12.4555C27.0485 12.4555 27.936 15.618 27.936 19.7305V28.1118Z" fill="#98A2B3"/>
</g>
<defs>
<clipPath id="clip0_2365_14959">
<rect width="32" height="32" fill="white" transform="translate(0.666382 0.850586)"/>
</clipPath>
</defs>
</svg>
