<svg width="20" height="19" viewBox="0 0 20 19" fill="none" xmlns="http://www.w3.org/2000/svg">
<path d="M10.3471 0.68915L13.0448 6.17331L19.0752 7.05294C19.1518 7.06432 19.2236 7.09684 19.2827 7.14684C19.3417 7.19684 19.3856 7.26234 19.4095 7.33595C19.4333 7.40956 19.4361 7.48837 19.4176 7.5635C19.3991 7.63862 19.3599 7.70708 19.3046 7.76117L14.9418 12.029L15.9719 18.0566C15.9851 18.1328 15.9768 18.2112 15.9478 18.2829C15.9188 18.3546 15.8703 18.4167 15.8077 18.4622C15.7452 18.5078 15.6712 18.5349 15.5941 18.5405C15.5169 18.5461 15.4398 18.53 15.3713 18.494L9.97718 15.6487L4.58304 18.4948C4.51465 18.5309 4.43748 18.5472 4.36032 18.5416C4.28316 18.5361 4.20909 18.5091 4.14653 18.4636C4.08398 18.418 4.03544 18.3559 4.00645 18.2842C3.97745 18.2125 3.96916 18.134 3.98251 18.0578L5.01258 12.029L0.648525 7.76117C0.593191 7.70708 0.554056 7.63862 0.535527 7.5635C0.516999 7.48837 0.519813 7.40956 0.543653 7.33595C0.567493 7.26234 0.611411 7.19684 0.670463 7.14684C0.729514 7.09684 0.801352 7.06432 0.877888 7.05294L6.90832 6.17331L9.60724 0.68915C9.6409 0.619654 9.69345 0.561044 9.75888 0.520035C9.82431 0.479026 9.89996 0.457275 9.97718 0.457275C10.0544 0.457275 10.1301 0.479026 10.1955 0.520035C10.2609 0.561044 10.3135 0.619654 10.3471 0.68915Z" fill="#ED2326"/>
</svg>
